<mxfile host="app.diagrams.net" agent="Mozilla/5.0 (Windows NT 10.0; Win64; x64) AppleWebKit/537.36 (KHTML, like Gecko) Chrome/127.0.0.0 Safari/537.36 Edg/127.0.0.0" version="24.7.6">
  <diagram name="Page-1" id="FoX-252tg1TNKMLZgkpP">
    <mxGraphModel dx="4087" dy="3006" grid="1" gridSize="10" guides="1" tooltips="1" connect="1" arrows="1" fold="1" page="1" pageScale="1" pageWidth="827" pageHeight="1169" math="0" shadow="0">
      <root>
        <mxCell id="0" />
        <mxCell id="1" parent="0" />
        <mxCell id="cmFCn7VclfjNkGZ2KnOe-1" value="&lt;h1 style=&quot;margin-top: 0px;&quot;&gt;&lt;span style=&quot;background-color: initial;&quot;&gt;&lt;font style=&quot;font-size: 50px;&quot;&gt;&amp;nbsp;Controller:&lt;/font&gt;&lt;/span&gt;&lt;br&gt;&lt;/h1&gt;&lt;div&gt;&lt;span style=&quot;background-color: initial;&quot;&gt;&lt;font style=&quot;font-size: 50px;&quot;&gt;&lt;span style=&quot;white-space: pre;&quot;&gt;&#x9;&lt;/span&gt;&lt;span style=&quot;white-space: pre;&quot;&gt;&#x9;&lt;/span&gt;&amp;nbsp; &amp;nbsp;&lt;/font&gt;&lt;/span&gt;&lt;span style=&quot;font-size: 50px; background-color: initial;&quot;&gt;&lt;b&gt;State Transition Graph STG&lt;/b&gt;&lt;/span&gt;&lt;/div&gt;" style="text;html=1;whiteSpace=wrap;overflow=hidden;rounded=0;" vertex="1" parent="1">
          <mxGeometry x="-240" y="-600" width="1050" height="310" as="geometry" />
        </mxCell>
        <mxCell id="cmFCn7VclfjNkGZ2KnOe-2" value="&lt;b style=&quot;font-size: 25px;&quot;&gt;IDLE&lt;/b&gt;" style="ellipse;whiteSpace=wrap;html=1;aspect=fixed;strokeWidth=2;" vertex="1" parent="1">
          <mxGeometry x="284" y="-270" width="150" height="150" as="geometry" />
        </mxCell>
        <mxCell id="cmFCn7VclfjNkGZ2KnOe-3" style="edgeStyle=orthogonalEdgeStyle;rounded=0;orthogonalLoop=1;jettySize=auto;html=1;exitX=0;exitY=1;exitDx=0;exitDy=0;curved=1;entryX=0.5;entryY=1;entryDx=0;entryDy=0;" edge="1" parent="1" source="cmFCn7VclfjNkGZ2KnOe-5" target="cmFCn7VclfjNkGZ2KnOe-5">
          <mxGeometry relative="1" as="geometry">
            <mxPoint x="659.9999999999995" y="370" as="targetPoint" />
            <Array as="points">
              <mxPoint x="580" y="338" />
              <mxPoint x="580" y="400" />
              <mxPoint x="655" y="400" />
            </Array>
          </mxGeometry>
        </mxCell>
        <mxCell id="cmFCn7VclfjNkGZ2KnOe-4" style="edgeStyle=orthogonalEdgeStyle;rounded=0;orthogonalLoop=1;jettySize=auto;html=1;exitX=0;exitY=0.5;exitDx=0;exitDy=0;curved=1;" edge="1" parent="1" source="cmFCn7VclfjNkGZ2KnOe-5">
          <mxGeometry relative="1" as="geometry">
            <mxPoint x="600" y="340" as="targetPoint" />
            <Array as="points">
              <mxPoint x="510" y="285" />
              <mxPoint x="510" y="380" />
              <mxPoint x="601" y="380" />
            </Array>
          </mxGeometry>
        </mxCell>
        <mxCell id="cmFCn7VclfjNkGZ2KnOe-20" style="edgeStyle=orthogonalEdgeStyle;rounded=0;orthogonalLoop=1;jettySize=auto;html=1;exitX=0;exitY=0;exitDx=0;exitDy=0;entryX=1;entryY=0.5;entryDx=0;entryDy=0;" edge="1" parent="1" source="cmFCn7VclfjNkGZ2KnOe-5" target="cmFCn7VclfjNkGZ2KnOe-21">
          <mxGeometry relative="1" as="geometry">
            <mxPoint x="-9.999999999999545" y="233" as="targetPoint" />
          </mxGeometry>
        </mxCell>
        <mxCell id="cmFCn7VclfjNkGZ2KnOe-5" value="&lt;b style=&quot;font-size: 25px;&quot;&gt;PROCESS&lt;/b&gt;" style="ellipse;whiteSpace=wrap;html=1;aspect=fixed;strokeWidth=2;" vertex="1" parent="1">
          <mxGeometry x="580" y="210" width="150" height="150" as="geometry" />
        </mxCell>
        <mxCell id="cmFCn7VclfjNkGZ2KnOe-8" value="" style="curved=1;endArrow=classic;html=1;rounded=0;entryX=1;entryY=0;entryDx=0;entryDy=0;" edge="1" parent="1" target="cmFCn7VclfjNkGZ2KnOe-2">
          <mxGeometry width="50" height="50" relative="1" as="geometry">
            <mxPoint x="470" y="-380" as="sourcePoint" />
            <mxPoint x="450" y="-295" as="targetPoint" />
            <Array as="points">
              <mxPoint x="420" y="-350" />
              <mxPoint x="500" y="-295" />
            </Array>
          </mxGeometry>
        </mxCell>
        <mxCell id="cmFCn7VclfjNkGZ2KnOe-9" value="&lt;font style=&quot;font-size: 30px;&quot;&gt;reset, !src_valid&lt;/font&gt;" style="text;html=1;align=center;verticalAlign=middle;whiteSpace=wrap;rounded=0;" vertex="1" parent="1">
          <mxGeometry x="470" y="-360" width="230" height="30" as="geometry" />
        </mxCell>
        <mxCell id="cmFCn7VclfjNkGZ2KnOe-10" value="&lt;font style=&quot;font-size: 30px;&quot;&gt;src_valid / src_ready, sel_a = 2&#39;bxx , enable&lt;/font&gt;" style="text;html=1;align=center;verticalAlign=middle;whiteSpace=wrap;rounded=0;" vertex="1" parent="1">
          <mxGeometry x="530" y="-120" width="610" height="60" as="geometry" />
        </mxCell>
        <mxCell id="cmFCn7VclfjNkGZ2KnOe-11" style="edgeStyle=orthogonalEdgeStyle;rounded=0;orthogonalLoop=1;jettySize=auto;html=1;exitX=1;exitY=0.5;exitDx=0;exitDy=0;curved=1;" edge="1" parent="1" source="cmFCn7VclfjNkGZ2KnOe-5" target="cmFCn7VclfjNkGZ2KnOe-5">
          <mxGeometry relative="1" as="geometry">
            <Array as="points">
              <mxPoint x="730" y="270" />
              <mxPoint x="790" y="270" />
              <mxPoint x="790" y="380" />
              <mxPoint x="710" y="380" />
            </Array>
          </mxGeometry>
        </mxCell>
        <mxCell id="cmFCn7VclfjNkGZ2KnOe-12" value="&lt;font style=&quot;font-size: 30px;&quot;&gt;start, operation =01 /&amp;nbsp;&lt;span style=&quot;font-size: 31px;&quot;&gt;src_valid = x&amp;nbsp;&lt;/span&gt;,&amp;nbsp;&lt;/font&gt;&lt;div&gt;&lt;font style=&quot;font-size: 30px;&quot;&gt;sel_a = 2&#39;b01 , enable&lt;/font&gt;&lt;/div&gt;" style="text;html=1;align=center;verticalAlign=middle;whiteSpace=wrap;rounded=0;" vertex="1" parent="1">
          <mxGeometry x="770" y="300" width="580" height="60" as="geometry" />
        </mxCell>
        <mxCell id="cmFCn7VclfjNkGZ2KnOe-13" value="&lt;font style=&quot;font-size: 30px;&quot;&gt;start, operation =10 /&amp;nbsp;&lt;span style=&quot;font-size: 31px;&quot;&gt;src_valid = x,&amp;nbsp;&lt;/span&gt;&lt;/font&gt;&lt;div&gt;&lt;font style=&quot;font-size: 30px;&quot;&gt;sel_a = 2&#39;b10 , enable&lt;/font&gt;&lt;/div&gt;" style="text;html=1;align=center;verticalAlign=middle;whiteSpace=wrap;rounded=0;rotation=0;" vertex="1" parent="1">
          <mxGeometry x="510" y="430" width="600" height="60" as="geometry" />
        </mxCell>
        <mxCell id="cmFCn7VclfjNkGZ2KnOe-14" value="&lt;font style=&quot;font-size: 30px;&quot;&gt;start, operation =11 /&amp;nbsp;&lt;span style=&quot;font-size: 31px;&quot;&gt;src_valid = x&amp;nbsp;&lt;/span&gt;,&lt;/font&gt;&lt;div&gt;&lt;font style=&quot;font-size: 30px;&quot;&gt;sel_a = 2&#39;b11 , enable&lt;/font&gt;&lt;/div&gt;" style="text;html=1;align=center;verticalAlign=middle;whiteSpace=wrap;rounded=0;" vertex="1" parent="1">
          <mxGeometry x="-40" y="360" width="580" height="60" as="geometry" />
        </mxCell>
        <mxCell id="cmFCn7VclfjNkGZ2KnOe-15" style="edgeStyle=orthogonalEdgeStyle;rounded=0;orthogonalLoop=1;jettySize=auto;html=1;exitX=0.5;exitY=0;exitDx=0;exitDy=0;entryX=1;entryY=0;entryDx=0;entryDy=0;curved=1;" edge="1" parent="1" source="cmFCn7VclfjNkGZ2KnOe-5" target="cmFCn7VclfjNkGZ2KnOe-5">
          <mxGeometry relative="1" as="geometry">
            <Array as="points">
              <mxPoint x="655" y="190" />
              <mxPoint x="730" y="190" />
              <mxPoint x="730" y="230" />
              <mxPoint x="720" y="230" />
              <mxPoint x="720" y="232" />
            </Array>
          </mxGeometry>
        </mxCell>
        <mxCell id="cmFCn7VclfjNkGZ2KnOe-16" value="&lt;font style=&quot;font-size: 31px;&quot;&gt;start, operation =00 / src_valid = x,&amp;nbsp;&lt;/font&gt;&lt;div&gt;&lt;font style=&quot;font-size: 31px;&quot;&gt;sel_a = 2&#39;b00 , enable&lt;/font&gt;&lt;/div&gt;" style="text;html=1;align=center;verticalAlign=middle;whiteSpace=wrap;rounded=0;" vertex="1" parent="1">
          <mxGeometry x="700" y="180" width="610" height="60" as="geometry" />
        </mxCell>
        <mxCell id="cmFCn7VclfjNkGZ2KnOe-17" value="&lt;font style=&quot;font-size: 30px;&quot;&gt;count16,dest_ready /dest_valid,&lt;/font&gt;&lt;div&gt;&lt;font style=&quot;font-size: 30px;&quot;&gt;&amp;nbsp;sel_a = 2&#39;bxx&amp;nbsp;&lt;/font&gt;&lt;/div&gt;" style="text;html=1;align=center;verticalAlign=middle;whiteSpace=wrap;rounded=0;" vertex="1" parent="1">
          <mxGeometry x="35" y="150" width="445" height="60" as="geometry" />
        </mxCell>
        <mxCell id="cmFCn7VclfjNkGZ2KnOe-18" value="&lt;font style=&quot;font-size: 40px;&quot;&gt;&lt;b&gt;Handshake&lt;/b&gt;&lt;/font&gt;" style="text;html=1;align=center;verticalAlign=middle;whiteSpace=wrap;rounded=0;" vertex="1" parent="1">
          <mxGeometry x="600" y="-200" width="310" height="70" as="geometry" />
        </mxCell>
        <mxCell id="cmFCn7VclfjNkGZ2KnOe-21" value="&lt;b style=&quot;font-size: 25px;&quot;&gt;S1&lt;/b&gt;" style="ellipse;whiteSpace=wrap;html=1;aspect=fixed;strokeWidth=2;" vertex="1" parent="1">
          <mxGeometry x="-210" y="158" width="150" height="150" as="geometry" />
        </mxCell>
        <mxCell id="cmFCn7VclfjNkGZ2KnOe-22" value="&lt;font style=&quot;font-size: 30px;&quot;&gt;!dest_ready /dest_valid,&amp;nbsp;&lt;/font&gt;&lt;div&gt;&lt;font style=&quot;font-size: 30px;&quot;&gt;sel_a = 2&#39;bxx&amp;nbsp;&lt;/font&gt;&lt;/div&gt;" style="text;html=1;align=center;verticalAlign=middle;whiteSpace=wrap;rounded=0;" vertex="1" parent="1">
          <mxGeometry x="-520" y="340" width="470" height="60" as="geometry" />
        </mxCell>
        <mxCell id="cmFCn7VclfjNkGZ2KnOe-25" style="edgeStyle=orthogonalEdgeStyle;rounded=0;orthogonalLoop=1;jettySize=auto;html=1;exitX=0;exitY=0.5;exitDx=0;exitDy=0;entryX=0.5;entryY=1;entryDx=0;entryDy=0;curved=1;" edge="1" parent="1" source="cmFCn7VclfjNkGZ2KnOe-21" target="cmFCn7VclfjNkGZ2KnOe-21">
          <mxGeometry relative="1" as="geometry" />
        </mxCell>
        <mxCell id="cmFCn7VclfjNkGZ2KnOe-27" value="" style="edgeStyle=none;orthogonalLoop=1;jettySize=auto;html=1;rounded=0;entryX=0.318;entryY=0.018;entryDx=0;entryDy=0;entryPerimeter=0;curved=1;" edge="1" parent="1" target="cmFCn7VclfjNkGZ2KnOe-5">
          <mxGeometry width="80" relative="1" as="geometry">
            <mxPoint x="400" y="-130" as="sourcePoint" />
            <mxPoint x="510" as="targetPoint" />
            <Array as="points">
              <mxPoint x="670" y="-30" />
            </Array>
          </mxGeometry>
        </mxCell>
        <mxCell id="cmFCn7VclfjNkGZ2KnOe-28" value="&lt;b style=&quot;font-size: 25px;&quot;&gt;S1&lt;/b&gt;" style="ellipse;whiteSpace=wrap;html=1;aspect=fixed;strokeWidth=2;" vertex="1" parent="1">
          <mxGeometry x="-210" y="-266" width="150" height="150" as="geometry" />
        </mxCell>
        <mxCell id="cmFCn7VclfjNkGZ2KnOe-29" value="" style="edgeStyle=none;orthogonalLoop=1;jettySize=auto;html=1;rounded=0;exitX=0.5;exitY=0;exitDx=0;exitDy=0;entryX=0.5;entryY=1;entryDx=0;entryDy=0;" edge="1" parent="1" source="cmFCn7VclfjNkGZ2KnOe-21" target="cmFCn7VclfjNkGZ2KnOe-28">
          <mxGeometry width="80" relative="1" as="geometry">
            <mxPoint x="-190" as="sourcePoint" />
            <mxPoint x="-110" as="targetPoint" />
            <Array as="points" />
          </mxGeometry>
        </mxCell>
        <mxCell id="cmFCn7VclfjNkGZ2KnOe-31" value="" style="edgeStyle=none;orthogonalLoop=1;jettySize=auto;html=1;rounded=0;exitX=1;exitY=0.5;exitDx=0;exitDy=0;curved=1;" edge="1" parent="1" source="cmFCn7VclfjNkGZ2KnOe-28" target="cmFCn7VclfjNkGZ2KnOe-2">
          <mxGeometry width="80" relative="1" as="geometry">
            <mxPoint x="90" y="-140" as="sourcePoint" />
            <mxPoint x="170" y="-140" as="targetPoint" />
            <Array as="points" />
          </mxGeometry>
        </mxCell>
        <mxCell id="cmFCn7VclfjNkGZ2KnOe-32" value="&lt;font style=&quot;font-size: 30px;&quot;&gt;dest_ready/dest_valid, en_product = 1&lt;/font&gt;" style="text;html=1;align=center;verticalAlign=middle;whiteSpace=wrap;rounded=0;" vertex="1" parent="1">
          <mxGeometry x="-130" y="-50" width="540" height="60" as="geometry" />
        </mxCell>
        <mxCell id="cmFCn7VclfjNkGZ2KnOe-33" value="&lt;font style=&quot;font-size: 40px;&quot;&gt;&lt;b&gt;Handshake&lt;/b&gt;&lt;/font&gt;" style="text;html=1;align=center;verticalAlign=middle;whiteSpace=wrap;rounded=0;" vertex="1" parent="1">
          <mxGeometry x="-440" y="-60" width="310" height="70" as="geometry" />
        </mxCell>
      </root>
    </mxGraphModel>
  </diagram>
</mxfile>
